#Comment line ignore any data following # character 
#Hierarchical Translation and Rotation (.htr) file 
[Header]	
#Header keywords are followed by a single value 
FileType HTR		#Single word string
DataType HTRS		#Translation followed by rotation and scale data
FileVersion 1		#integer
NumSegments 84		#integer
NumFrames 2		#integer
DataFrameRate 30		#integer, data frame rate in this file
EulerRotationOrder ZYX
CalibrationUnits mm
RotationUnits Degrees
GlobalAxisofGravity Y
BoneLengthAxis Y
ScaleFactor 1.00
[SegmentNames&Hierarchy]
#CHILD	PARENT
MASTER GLOBAL
root MASTER
chest root
L_mid_tent01 root
R_mid_tent01 root
spine01 root
Bip01_Neck chest
L_humerus chest
R_humerus chest
weapon_bone chest
Bip01_Head Bip01_Neck
eye_left_bone Bip01_Head
eye_right_bone Bip01_Head
L_forearm L_humerus
L_front_hand L_forearm
L_weapon_bone L_forearm
L_front_hand01_01 L_front_hand
L_front_hand02_01 L_front_hand
L_front_hand03_01 L_front_hand
L_front_hand01_02 L_front_hand01_01
L_front_hand02_02 L_front_hand02_01
L_front_hand03_02 L_front_hand03_01
R_forearm R_humerus
R_front_hand R_forearm
R_weapon_bone R_forearm
R_front_hand01_01 R_front_hand
R_front_hand02_01 R_front_hand
R_front_hand03_01 R_front_hand
R_front_hand01_02 R_front_hand01_01
R_front_hand02_02 R_front_hand02_01
R_front_hand03_02 R_front_hand03_01
null_rope01_connect L_mid_tent01
Rope1_Seg01 null_rope01_connect
Rope1_Seg02 Rope1_Seg01
Rope1_Seg03 Rope1_Seg02
Rope1_Seg04 Rope1_Seg03
Rope1_Seg05 Rope1_Seg04
Rope1_Seg06 Rope1_Seg05
Rope1_Seg07 Rope1_Seg06
Rope1_Seg09 Rope1_Seg07
L_mid_hand01 Rope1_Seg09
L_mid_hand02 Rope1_Seg09
L_mid_hand03 Rope1_Seg09
null_rope02_connect R_mid_tent01
Rope2_Seg01 null_rope02_connect
Rope2_Seg02 Rope2_Seg01
Rope2_Seg03 Rope2_Seg02
Rope2_Seg04 Rope2_Seg03
Rope2_Seg05 Rope2_Seg04
Rope2_Seg06 Rope2_Seg05
Rope2_Seg07 Rope2_Seg06
Rope2_Seg09 Rope2_Seg07
R_mid_hand01 Rope2_Seg09
R_mid_hand02 Rope2_Seg09
R_mid_hand03 Rope2_Seg09
spine02 spine01
spine03 spine02
pelvis spine03
null_rope03_connect pelvis
null_rope04_connect pelvis
Rope3_Seg01 null_rope03_connect
Rope3_Seg02 Rope3_Seg01
Rope3_Seg03 Rope3_Seg02
Rope3_Seg04 Rope3_Seg03
Rope3_Seg05 Rope3_Seg04
Rope3_Seg06 Rope3_Seg05
Rope3_Seg07 Rope3_Seg06
Rope3_Seg08 Rope3_Seg07
Rope3_Seg09 Rope3_Seg08
R_rear_hand01 Rope3_Seg09
R_rear_hand02 Rope3_Seg09
R_rear_hand03 Rope3_Seg09
Rope4_Seg01 null_rope04_connect
Rope4_Seg02 Rope4_Seg01
Rope4_Seg03 Rope4_Seg02
Rope4_Seg04 Rope4_Seg03
Rope4_Seg05 Rope4_Seg04
Rope4_Seg06 Rope4_Seg05
Rope4_Seg07 Rope4_Seg06
Rope4_Seg08 Rope4_Seg07
Rope4_Seg09 Rope4_Seg08
L_rear_hand01 Rope4_Seg09
L_rear_hand02 Rope4_Seg09
L_rear_hand03 Rope4_Seg09
[BasePosition]
#SegmentName Tx, Ty, Tz, Rx, Ry, Rz, BoneLength
MASTER 0.000000 0.000000 0.000000 -90.000000 0.000000 0.000000 10.000000 
root 0.000000 0.000000 0.000000 0.000000 0.000000 0.000000 10.000000 
chest 0.000000 0.000000 0.000000 0.000000 0.000000 0.000000 10.000000 
L_mid_tent01 0.000000 0.000000 0.000000 0.000000 0.000000 0.000000 10.000000 
R_mid_tent01 0.000000 0.000000 0.000000 0.000000 0.000000 0.000000 10.000000 
spine01 0.000000 0.000000 0.000000 0.000000 0.000000 0.000000 10.000000 
Bip01_Neck 0.000000 0.000000 0.000000 0.000000 0.000000 0.000000 10.000000 
L_humerus 0.000000 0.000000 0.000000 0.000000 0.000000 0.000000 10.000000 
R_humerus 0.000000 0.000000 0.000000 0.000000 0.000000 0.000000 10.000000 
weapon_bone 0.000000 0.000000 0.000000 0.000000 0.000000 0.000000 10.000000 
Bip01_Head 0.000000 0.000000 0.000000 0.000000 0.000000 0.000000 10.000000 
eye_left_bone 0.000000 0.000000 0.000000 0.000000 0.000000 0.000000 10.000000 
eye_right_bone 0.000000 0.000000 0.000000 0.000000 0.000000 0.000000 10.000000 
L_forearm 0.000000 0.000000 0.000000 0.000000 0.000000 0.000000 10.000000 
L_front_hand 0.000000 0.000000 0.000000 0.000000 0.000000 0.000000 10.000000 
L_weapon_bone 0.000000 0.000000 0.000000 0.000000 0.000000 0.000000 10.000000 
L_front_hand01_01 0.000000 0.000000 0.000000 0.000000 0.000000 0.000000 10.000000 
L_front_hand02_01 0.000000 0.000000 0.000000 0.000000 0.000000 0.000000 10.000000 
L_front_hand03_01 0.000000 0.000000 0.000000 0.000000 0.000000 0.000000 10.000000 
L_front_hand01_02 0.000000 0.000000 0.000000 0.000000 0.000000 0.000000 10.000000 
L_front_hand02_02 0.000000 0.000000 0.000000 0.000000 0.000000 0.000000 10.000000 
L_front_hand03_02 0.000000 0.000000 0.000000 0.000000 0.000000 0.000000 10.000000 
R_forearm 0.000000 0.000000 0.000000 0.000000 0.000000 0.000000 10.000000 
R_front_hand 0.000000 0.000000 0.000000 0.000000 0.000000 0.000000 10.000000 
R_weapon_bone 0.000000 0.000000 0.000000 0.000000 0.000000 0.000000 10.000000 
R_front_hand01_01 0.000000 0.000000 0.000000 0.000000 0.000000 0.000000 10.000000 
R_front_hand02_01 0.000000 0.000000 0.000000 0.000000 0.000000 0.000000 10.000000 
R_front_hand03_01 0.000000 0.000000 0.000000 0.000000 0.000000 0.000000 10.000000 
R_front_hand01_02 0.000000 0.000000 0.000000 0.000000 0.000000 0.000000 10.000000 
R_front_hand02_02 0.000000 0.000000 0.000000 0.000000 0.000000 0.000000 10.000000 
R_front_hand03_02 0.000000 0.000000 0.000000 0.000000 0.000000 0.000000 10.000000 
null_rope01_connect 0.000000 0.000000 0.000000 0.000000 0.000000 0.000000 10.000000 
Rope1_Seg01 0.000000 0.000000 0.000000 0.000000 0.000000 0.000000 10.000000 
Rope1_Seg02 0.000000 0.000000 0.000000 0.000000 0.000000 0.000000 10.000000 
Rope1_Seg03 0.000000 0.000000 0.000000 0.000000 0.000000 0.000000 10.000000 
Rope1_Seg04 0.000000 0.000000 0.000000 0.000000 0.000000 0.000000 10.000000 
Rope1_Seg05 0.000000 0.000000 0.000000 0.000000 0.000000 0.000000 10.000000 
Rope1_Seg06 0.000000 0.000000 0.000000 0.000000 0.000000 0.000000 10.000000 
Rope1_Seg07 0.000000 0.000000 0.000000 0.000000 0.000000 0.000000 10.000000 
Rope1_Seg09 0.000000 0.000000 0.000000 0.000000 0.000000 0.000000 10.000000 
L_mid_hand01 0.000000 0.000000 0.000000 0.000000 0.000000 0.000000 10.000000 
L_mid_hand02 0.000000 0.000000 0.000000 0.000000 0.000000 0.000000 10.000000 
L_mid_hand03 0.000000 0.000000 0.000000 0.000000 0.000000 0.000000 10.000000 
null_rope02_connect 0.000000 0.000000 0.000000 0.000000 0.000000 0.000000 10.000000 
Rope2_Seg01 0.000000 0.000000 0.000000 0.000000 0.000000 0.000000 10.000000 
Rope2_Seg02 0.000000 0.000000 0.000000 0.000000 0.000000 0.000000 10.000000 
Rope2_Seg03 0.000000 0.000000 0.000000 0.000000 0.000000 0.000000 10.000000 
Rope2_Seg04 0.000000 0.000000 0.000000 0.000000 0.000000 0.000000 10.000000 
Rope2_Seg05 0.000000 0.000000 0.000000 0.000000 0.000000 0.000000 10.000000 
Rope2_Seg06 0.000000 0.000000 0.000000 0.000000 0.000000 0.000000 10.000000 
Rope2_Seg07 0.000000 0.000000 0.000000 0.000000 0.000000 0.000000 10.000000 
Rope2_Seg09 0.000000 0.000000 0.000000 0.000000 0.000000 0.000000 10.000000 
R_mid_hand01 0.000000 0.000000 0.000000 0.000000 0.000000 0.000000 10.000000 
R_mid_hand02 0.000000 0.000000 0.000000 0.000000 0.000000 0.000000 10.000000 
R_mid_hand03 0.000000 0.000000 0.000000 0.000000 0.000000 0.000000 10.000000 
spine02 0.000000 0.000000 0.000000 0.000000 0.000000 0.000000 10.000000 
spine03 0.000000 0.000000 0.000000 0.000000 0.000000 0.000000 10.000000 
pelvis 0.000000 0.000000 0.000000 0.000000 0.000000 0.000000 10.000000 
null_rope03_connect 0.000000 0.000000 0.000000 0.000000 0.000000 0.000000 10.000000 
null_rope04_connect 0.000000 0.000000 0.000000 0.000000 0.000000 0.000000 10.000000 
Rope3_Seg01 0.000000 0.000000 0.000000 0.000000 0.000000 0.000000 10.000000 
Rope3_Seg02 0.000000 0.000000 0.000000 0.000000 0.000000 0.000000 10.000000 
Rope3_Seg03 0.000000 0.000000 0.000000 0.000000 0.000000 0.000000 10.000000 
Rope3_Seg04 0.000000 0.000000 0.000000 0.000000 0.000000 0.000000 10.000000 
Rope3_Seg05 0.000000 0.000000 0.000000 0.000000 0.000000 0.000000 10.000000 
Rope3_Seg06 0.000000 0.000000 0.000000 0.000000 0.000000 0.000000 10.000000 
Rope3_Seg07 0.000000 0.000000 0.000000 0.000000 0.000000 0.000000 10.000000 
Rope3_Seg08 0.000000 0.000000 0.000000 0.000000 0.000000 0.000000 10.000000 
Rope3_Seg09 0.000000 0.000000 0.000000 0.000000 0.000000 0.000000 10.000000 
R_rear_hand01 0.000000 0.000000 0.000000 0.000000 0.000000 0.000000 10.000000 
R_rear_hand02 0.000000 0.000000 0.000000 0.000000 0.000000 0.000000 10.000000 
R_rear_hand03 0.000000 0.000000 0.000000 0.000000 0.000000 0.000000 10.000000 
Rope4_Seg01 0.000000 0.000000 0.000000 0.000000 0.000000 0.000000 10.000000 
Rope4_Seg02 0.000000 0.000000 0.000000 0.000000 0.000000 0.000000 10.000000 
Rope4_Seg03 0.000000 0.000000 0.000000 0.000000 0.000000 0.000000 10.000000 
Rope4_Seg04 0.000000 0.000000 0.000000 0.000000 0.000000 0.000000 10.000000 
Rope4_Seg05 0.000000 0.000000 0.000000 0.000000 0.000000 0.000000 10.000000 
Rope4_Seg06 0.000000 0.000000 0.000000 0.000000 0.000000 0.000000 10.000000 
Rope4_Seg07 0.000000 0.000000 0.000000 0.000000 0.000000 0.000000 10.000000 
Rope4_Seg08 0.000000 0.000000 0.000000 0.000000 0.000000 0.000000 10.000000 
Rope4_Seg09 0.000000 0.000000 0.000000 0.000000 0.000000 0.000000 10.000000 
L_rear_hand01 0.000000 0.000000 0.000000 0.000000 0.000000 0.000000 10.000000 
L_rear_hand02 0.000000 0.000000 0.000000 0.000000 0.000000 0.000000 10.000000 
L_rear_hand03 0.000000 0.000000 0.000000 0.000000 0.000000 0.000000 10.000000 
#Beginning of Data. Separated by tabs
#Fr	Tx	Ty	Tz	Rx	Ry	Rz	SF
[MASTER]
5 0.000000 0.000000 0.000000 0.001660 0.001660 0.001660 0.000000
6 0.000000 0.000000 0.000000 0.001660 0.001660 0.001660 0.000000
[root]
5 -34.131649 -53.402664 4845.122559 -96.533897 -15.487563 -91.469185 4845.537109
6 -34.930691 -52.975746 4666.997070 -97.231743 -19.412434 -91.040504 4667.428223
[chest]
5 -84.512650 -34.090519 0.000000 -4.586716 -5.172439 152.976746 91.129311
6 -84.512650 -34.090519 0.000000 -6.042623 -6.458991 156.222916 91.129311
[L_mid_tent01]
5 27.299246 22.178713 -249.918396 -68.117447 80.201103 18.993332 252.381363
6 27.299240 22.178728 -249.918411 -14.557705 67.539085 69.395348 252.381378
[R_mid_tent01]
5 23.228794 24.509907 226.238495 171.373138 -64.940910 77.872169 228.744751
6 23.228794 24.509907 226.238495 164.909637 -59.496433 84.240234 228.744751
[spine01]
5 -0.361383 -0.195265 0.000000 0.002062 0.001122 32.879829 0.410763
6 -0.361383 -0.195265 0.000000 0.002062 0.001122 32.879829 0.410763
[Bip01_Neck]
5 165.484543 71.581718 0.000119 176.643677 -1.657967 43.431911 180.302734
6 165.484543 71.581718 0.000119 176.643677 -1.657967 43.431911 180.302734
[L_humerus]
5 -13.983130 -135.272980 -120.471481 90.862862 75.532944 -162.999207 181.680161
6 -13.983130 -135.272980 -120.471481 55.112717 70.430374 171.404495 181.680161
[R_humerus]
5 -13.983309 -135.273102 125.287651 -168.118774 -35.008774 -102.112595 184.909012
6 -13.983309 -135.273102 125.287651 -168.805573 -22.085089 -103.532463 184.909012
[weapon_bone]
5 235.964890 -300.705902 0.000000 0.000000 -89.951546 -128.212341 382.234833
6 235.964890 -300.705902 0.000000 0.000000 -89.951546 -128.212341 382.234833
[Bip01_Head]
5 213.328323 186.032288 7.688980 33.028522 6.109509 -43.834492 283.153870
6 213.327698 186.037384 7.624111 33.172867 6.142009 -43.835072 283.154968
[eye_left_bone]
5 -24.626970 125.451866 -64.772606 0.000000 -90.000000 -99.840431 143.318359
6 -24.626970 125.451866 -64.772606 0.000000 -90.000000 -99.840431 143.318359
[eye_right_bone]
5 -24.626970 125.451866 64.327362 0.000000 -89.965736 80.156380 143.117676
6 -24.626970 125.451866 64.327362 0.000000 -89.965736 80.156380 143.117676
[L_forearm]
5 322.776093 0.000000 -0.000119 0.000199 -0.002339 -99.747910 322.776093
6 322.776093 0.000000 -0.000119 0.000190 -0.002340 -99.263428 322.776093
[L_front_hand]
5 241.149185 -0.042021 -3.300071 -178.514984 -1.715128 -32.369236 241.171753
6 241.149185 -0.042021 -3.300071 -178.527420 -1.725719 -31.954123 241.171753
[L_weapon_bone]
5 156.183838 0.000000 0.000000 0.000014 0.000007 0.000001 156.183838
6 156.183838 0.000000 0.000000 0.000014 0.000007 0.000001 156.183838
[L_front_hand01_01]
5 86.095154 20.947098 -0.655860 -0.342291 -0.495149 72.451683 88.609184
6 86.095154 20.947098 -0.655860 -0.349230 -0.490139 73.139862 88.609184
[L_front_hand02_01]
5 86.935165 -11.437475 24.513514 150.048462 -58.519779 -56.305611 91.046425
6 86.935165 -11.437475 24.513514 151.025055 -58.854900 -57.448093 91.046425
[L_front_hand03_01]
5 86.637497 -14.123976 -20.424902 -149.869949 56.734909 -57.903400 90.126129
6 86.637497 -14.123976 -20.424902 -150.781433 57.074547 -58.996464 90.126129
[L_front_hand01_02]
5 71.020905 -0.000179 0.000030 0.000322 -0.002325 -105.785461 71.020905
6 71.020905 -0.000179 0.000030 0.000323 -0.002325 -105.838173 71.020905
[L_front_hand02_02]
5 71.020927 -0.000119 0.000060 0.000322 -0.002325 -105.785461 71.020927
6 71.020927 -0.000119 0.000060 0.000323 -0.002325 -105.838173 71.020927
[L_front_hand03_02]
5 71.020905 -0.000060 0.000060 0.000322 -0.002325 -105.785461 71.020905
6 71.020905 -0.000060 0.000060 0.000323 -0.002325 -105.838173 71.020905
[R_forearm]
5 322.776428 -0.000060 0.000030 0.212138 0.024921 -97.778786 322.776428
6 322.776428 -0.000060 0.000030 0.212303 0.022934 -97.333916 322.776428
[R_front_hand]
5 238.847015 -0.006795 2.210259 -1.540930 -10.853436 -32.166191 238.857239
6 238.847015 -0.006795 2.210259 -1.633814 -10.840901 -31.676214 238.857239
[R_weapon_bone]
5 155.664093 0.002503 -0.000030 0.003487 0.001180 -90.988930 155.664078
6 155.664093 0.002503 -0.000030 0.003487 0.001180 -90.988930 155.664078
[R_front_hand01_01]
5 87.624611 14.231146 22.918642 -153.375824 -59.587132 60.286877 91.683487
6 87.624611 14.231146 22.918642 -154.293076 -59.856663 61.349682 91.683487
[R_front_hand02_01]
5 89.356956 14.367283 -19.491137 153.420517 57.944504 62.356815 92.579636
6 89.356956 14.367283 -19.491137 154.283218 58.213089 63.373535 92.579636
[R_front_hand03_01]
5 87.286232 -22.307278 -0.143439 0.155221 -0.427320 -74.955513 90.091743
6 87.286232 -22.307278 -0.143439 0.161369 -0.423469 -75.555016 90.091743
[R_front_hand01_02]
5 71.020905 0.000060 0.000119 0.002323 -0.000334 106.381714 71.020905
6 71.020905 0.000060 0.000119 0.002323 -0.000334 106.381714 71.020905
[R_front_hand02_02]
5 71.020844 -0.000030 -0.000119 0.002323 -0.000334 106.381714 71.020836
6 71.020844 -0.000030 -0.000119 0.002323 -0.000334 106.381714 71.020836
[R_front_hand03_02]
5 71.020905 0.000000 0.000030 0.002323 -0.000334 106.381714 71.020905
6 71.020905 0.000000 0.000030 0.002323 -0.000334 106.381714 71.020905
[null_rope01_connect]
5 328.732483 0.000000 -0.000238 -161.994583 3.345666 -171.997070 328.732483
6 328.732483 0.000000 -0.000238 -155.637207 -14.072972 -174.413116 328.732483
[Rope1_Seg01]
5 -0.000038 -0.000114 0.000098 152.781723 38.789719 -156.064941 0.000155
6 -0.000038 -0.000114 0.000099 142.193939 31.322098 -154.692566 0.000156
[Rope1_Seg02]
5 139.999863 -0.000179 0.000000 -22.286095 9.931129 45.222244 139.999863
6 139.999863 -0.000179 0.000000 -12.122438 -9.702515 29.851690 139.999863
[Rope1_Seg03]
5 139.999924 0.000060 -0.000060 -3.342916 -3.652833 33.808590 139.999924
6 139.999924 0.000060 -0.000060 -6.501578 -11.169430 35.699539 139.999924
[Rope1_Seg04]
5 139.999924 -0.000060 -0.000119 0.379322 -5.493967 11.798638 139.999924
6 139.999924 -0.000060 -0.000119 -3.627752 -17.777843 12.722001 139.999924
[Rope1_Seg05]
5 139.999832 0.000119 -0.000060 -1.262500 -8.837691 8.172029 139.999832
6 139.999832 0.000119 -0.000060 -5.845959 -12.830905 0.993438 139.999832
[Rope1_Seg06]
5 139.999954 0.000119 -0.000060 -1.306846 -6.966533 6.084644 139.999954
6 139.999954 0.000119 -0.000060 -2.423727 -4.915237 1.026661 139.999954
[Rope1_Seg07]
5 139.999985 0.000060 0.000000 -0.267260 -3.538138 3.736446 139.999985
6 139.999985 0.000060 0.000000 -1.585354 -2.879675 0.546177 139.999985
[Rope1_Seg09]
5 121.602913 0.000119 -0.000089 -89.793175 -1.359789 0.847147 121.602913
6 121.602913 0.000119 -0.000089 -89.793175 -1.359789 0.847147 121.602913
[L_mid_hand01]
5 103.859421 1.038730 8.195221 130.544373 -67.584534 -38.866943 104.187431
6 103.859421 1.038730 8.195221 130.544373 -67.584534 -38.866940 104.187431
[L_mid_hand02]
5 105.572853 -4.139662 -10.864139 -168.923172 43.409321 -73.498909 106.211075
6 105.572853 -4.139662 -10.864139 -168.923172 43.409309 -73.498894 106.211075
[L_mid_hand03]
5 104.641464 17.579376 -3.913581 -6.012627 17.808174 74.893669 106.179977
6 104.641464 17.579376 -3.913581 -6.012628 17.808174 74.893669 106.179977
[null_rope02_connect]
5 328.732849 0.000179 -0.000119 -142.273102 31.710329 5.460432 328.732849
6 328.732849 0.000179 -0.000119 -136.105804 36.675991 11.296125 328.732849
[Rope2_Seg01]
5 -0.000050 0.000100 0.000000 -104.125000 58.909687 -3.998863 0.000112
6 -0.000043 0.000101 0.000000 -118.366798 58.070057 -16.233656 0.000110
[Rope2_Seg02]
5 139.999741 -0.000060 -0.000119 -0.276662 -5.618852 2.743869 139.999756
6 139.999741 -0.000060 -0.000119 -2.458387 -6.408092 5.665797 139.999756
[Rope2_Seg03]
5 140.000107 0.000030 0.000000 -0.414376 -11.305453 5.004193 140.000107
6 140.000107 0.000030 0.000000 -2.802793 -11.057828 8.874718 140.000107
[Rope2_Seg04]
5 139.999802 0.000000 -0.000060 -2.519732 -28.077915 11.217383 139.999802
6 139.999802 0.000000 -0.000060 -2.661327 -20.985329 12.177003 139.999802
[Rope2_Seg05]
5 139.999985 -0.000060 0.000119 5.367153 -12.372315 31.899296 139.999985
6 139.999985 -0.000060 0.000119 0.077419 -10.872445 18.611835 139.999985
[Rope2_Seg06]
5 139.999893 -0.000030 -0.000119 14.451719 -4.752056 22.985754 139.999893
6 139.999893 -0.000030 -0.000119 4.854625 -1.942817 15.153315 139.999893
[Rope2_Seg07]
5 139.999893 0.000060 -0.000060 7.577421 -0.037560 8.532280 139.999893
6 139.999893 0.000060 -0.000060 3.456073 -2.171932 8.545279 139.999893
[Rope2_Seg09]
5 121.338966 0.000089 -0.000060 33.793236 -1.359788 -0.847141 121.338966
6 121.338966 0.000089 -0.000060 33.793236 -1.359788 -0.847141 121.338966
[R_mid_hand01]
5 104.680779 11.144459 -10.335981 -16.212063 45.237247 70.462852 105.778534
6 104.680779 11.144459 -10.335981 -16.212063 45.237247 70.462852 105.778534
[R_mid_hand02]
5 104.070427 2.443552 8.231699 49.067368 -67.749771 39.286453 104.424065
6 104.070427 2.443552 8.231699 49.067368 -67.749771 39.286453 104.424065
[R_mid_hand03]
5 106.028137 -11.221827 -5.996406 -177.101105 15.551026 -76.585571 106.788818
6 106.028137 -11.221827 -5.996406 -177.101105 15.551026 -76.585571 106.788818
[spine02]
5 129.756927 0.001550 0.000119 -1.197344 -4.140078 9.250428 129.756927
6 129.756927 0.001550 0.000119 -1.198175 -4.117630 9.255124 129.756927
[spine03]
5 78.613777 0.083608 -4.898856 0.922838 4.654786 2.685966 78.766312
6 78.613785 0.083529 -4.898862 0.921575 4.613604 2.678943 78.766319
[pelvis]
5 169.435242 0.051022 0.000000 0.025993 0.004828 -13.845300 169.435257
6 169.435242 0.051022 0.000000 0.025625 -0.012654 -13.850288 169.435257
[null_rope03_connect]
5 -1.257226 -2.466202 137.391083 -153.366058 -82.205353 -132.097153 137.418976
6 -1.257226 -2.466202 137.391083 -153.392380 -81.666473 -128.111801 137.418976
[null_rope04_connect]
5 -1.259640 -2.480268 -137.844437 -153.366058 -82.205353 -132.097153 137.872513
6 -1.259640 -2.480268 -137.844437 -153.392380 -81.666473 -128.111801 137.872513
[Rope3_Seg01]
5 -0.000004 -0.000028 0.000263 -130.488312 2.626205 -74.611931 0.000265
6 -0.000005 -0.000025 0.000253 -130.590424 -0.460811 -71.837341 0.000254
[Rope3_Seg02]
5 139.999924 -0.000119 0.000060 -0.598824 1.564620 -8.368092 139.999924
6 139.999924 -0.000119 0.000060 -1.208460 2.487786 -8.868926 139.999924
[Rope3_Seg03]
5 139.999924 -0.000119 0.000119 -2.203593 2.382867 -12.213555 139.999924
6 139.999924 -0.000119 0.000119 -3.309754 3.772177 -12.657008 139.999924
[Rope3_Seg04]
5 139.999924 0.000119 0.000000 -7.618986 3.924358 -20.218451 139.999924
6 139.999924 0.000119 0.000000 -10.120936 6.506459 -20.719824 139.999924
[Rope3_Seg05]
5 139.999924 -0.000238 0.000060 -16.327898 6.777780 -22.106894 139.999924
6 139.999924 -0.000238 0.000060 -16.221144 9.392119 -19.174623 139.999924
[Rope3_Seg06]
5 139.999893 -0.000119 -0.000060 -3.034363 3.717606 -1.136347 139.999893
6 139.999893 -0.000119 -0.000060 -0.455634 1.969353 1.022708 139.999893
[Rope3_Seg07]
5 139.999771 0.000060 -0.000119 5.793312 -1.691031 10.619261 139.999771
6 139.999771 0.000060 -0.000119 6.972157 -4.774622 11.255206 139.999771
[Rope3_Seg08]
5 139.999985 -0.000060 0.000000 1.266106 1.353365 3.974473 139.999985
6 139.999985 -0.000060 0.000000 2.072769 -0.195723 4.614456 139.999985
[Rope3_Seg09]
5 90.185997 -0.000179 -0.000060 89.793228 -1.359877 -0.847183 90.185997
6 90.185997 -0.000179 -0.000060 89.793228 -1.359877 -0.847183 90.185997
[R_rear_hand01]
5 103.366196 -6.073594 -10.757982 -177.714203 24.565960 -73.910950 104.101845
6 103.366196 -6.073594 -10.757982 -177.714203 24.565960 -73.910950 104.101845
[R_rear_hand02]
5 100.509819 12.039542 -7.992327 -12.874829 36.868488 72.167213 101.543350
6 100.509819 12.039542 -7.992327 -12.874829 36.868488 72.167213 101.543350
[R_rear_hand03]
5 101.539970 5.215704 5.435467 71.484581 -71.816628 21.513813 101.819031
6 101.539970 5.215704 5.435467 71.484581 -71.816628 21.513813 101.819031
[Rope4_Seg01]
5 0.000018 -0.000038 -0.000547 60.192463 -27.871199 -124.944252 0.000549
6 0.000017 -0.000038 -0.000531 61.741188 -29.863661 -125.968086 0.000533
[Rope4_Seg02]
5 139.999985 0.000060 0.000119 -4.073447 -1.097107 -8.553960 139.999985
6 139.999985 0.000060 0.000119 -6.045187 3.881686 -9.927645 139.999985
[Rope4_Seg03]
5 139.999924 0.000000 -0.000238 -15.559509 -0.354478 -22.986448 139.999924
6 139.999924 0.000000 -0.000238 -15.394449 11.760895 -23.523939 139.999924
[Rope4_Seg04]
5 139.999985 0.000000 0.000119 -42.207031 13.858910 -49.408165 139.999985
6 139.999985 0.000000 0.000119 -20.273642 30.271843 -35.045692 139.999985
[Rope4_Seg05]
5 139.999802 -0.000060 -0.000119 -21.288204 12.326777 -32.990524 139.999802
6 139.999802 -0.000060 -0.000119 -2.411415 15.375691 -17.918549 139.999802
[Rope4_Seg06]
5 139.999924 0.000000 0.000060 -6.689822 7.793872 -12.094004 139.999924
6 139.999924 0.000000 0.000060 -0.034272 5.972733 -17.360258 139.999924
[Rope4_Seg07]
5 139.999802 0.000000 0.000000 -2.161951 4.579622 -4.308569 139.999802
6 139.999802 0.000000 0.000000 -0.015089 4.938988 -10.617666 139.999802
[Rope4_Seg08]
5 139.999924 0.000000 0.000119 -2.457520 2.415503 -2.113563 139.999924
6 139.999924 0.000000 0.000119 -1.403932 2.817638 -5.393017 139.999924
[Rope4_Seg09]
5 90.185791 0.000060 0.000060 -135.617828 2.228885 0.850567 90.185791
6 90.185791 0.000060 0.000060 -135.617828 2.228885 0.850567 90.185791
[L_rear_hand01]
5 101.696655 -8.392275 -7.654577 -12.874829 -36.868488 107.832764 102.329041
6 101.696655 -8.392275 -7.654577 -12.874829 -36.868488 107.832764 102.329041
[L_rear_hand02]
5 102.726799 -1.568258 5.773216 71.484581 71.816628 158.486160 102.900848
6 102.726799 -1.568258 5.773216 71.484581 71.816628 158.486160 102.900848
[L_rear_hand03]
5 104.552910 9.721220 -10.420293 -177.714203 -24.565960 -106.089035 105.519653
6 104.552910 9.721220 -10.420293 -177.714203 -24.565960 -106.089035 105.519653
